<svg width="461" height="180" viewBox="0 0 461 180" fill="none" xmlns="http://www.w3.org/2000/svg">
<g opacity="0.5">
<path d="M22.7229 162.265C16.3908 158.931 10.1113 155.126 5.6802 150.334C0.184514 144.469 -1.36146 136.002 0.553761 127.644C2.36661 119.756 6.89647 112.92 13.2333 108.356C17.5174 105.175 22.6276 103.395 27.8181 103.174C31.7152 103.003 35.7532 103.994 38.8839 106.027C42.3487 108.259 45.1651 111.798 46.6295 115.674C48.2518 119.976 49.6112 125.054 47.5932 128.871C45.8463 132.12 43.2196 133.929 41.1878 136.707C38.7575 139.929 37.3182 143.623 36.1654 147.484C34.9135 151.8 34.1098 156.344 35.3553 160.354C36.6903 164.603 40.2508 167.748 44.7153 168.954C49.0798 170.129 53.7594 169.438 57.9132 167.726C65.9925 164.668 72.6359 159.46 76.4723 152.346C80.5967 144.832 81.2873 135.674 80.4304 126.958C79.5703 118.216 77.1609 109.732 73.5019 102.369C69.8483 95.0119 64.9528 88.4312 59.7592 82.9272C55.3771 78.2514 50.5953 73.8896 45.5236 70.7466C42.0262 68.7771 38.1361 67.2566 34.1949 66.1985" stroke="#FF5733" stroke-width="6" stroke-linecap="round"/>
<path d="M39.3424 106.45C40.6889 104.496 42.2239 102.475 43.3158 100.396C44.7395 97.5281 44.9514 94.4286 44.4059 91.3141C43.7407 87.3402 41.7932 83.9802 40.1421 80.7004C38.1568 76.8849 36.7393 73.1447 34.2964 69.7221C30.2611 63.9722 24.0677 60.1044 17.3807 58.7099C15.5652 58.2489 13.7174 58.0008 11.8724 58.0008C9.91231 58.0008 7.95848 58.2245 6.0439 58.6651" stroke="#FF5733" stroke-width="6" stroke-linecap="round"/>
<path d="M50.1663 126.834C51.0471 124.367 52.2999 121.713 53.4154 119.135C54.9282 115.586 55.4847 111.951 55.1426 108.342" stroke="#FF5733" stroke-width="6" stroke-linecap="round"/>
<path d="M58.2944 87.4987C58.4258 90.4755 59.2421 93.4078 60.4638 96.1427" stroke="#FF5733" stroke-width="6" stroke-linecap="round"/>
<path d="M71.2134 104.458C71.9284 101.71 73.6203 98.8596 75.9539 96.5112C77.9233 94.5789 80.3977 93.1881 82.9893 92.6197C85.9937 91.9199 89.2339 92.2349 91.9544 93.3085C95.3569 94.6888 97.9495 97.8065 99.3843 101.218C101.524 106.329 101.775 112.102 99.6955 116.828C98.6698 119.273 97.0493 121.498 95.0402 123.268C92.4765 125.633 89.3845 127.102 86.2334 128.168C82.3045 129.352 78.2354 130.129 74.2829 131.275" stroke="#FF5733" stroke-width="6" stroke-linecap="round"/>
<path d="M72.7585 139.056C72.2264 141.477 70.9461 143.664 69.2025 145.64C68.1938 146.853 66.8601 147.887 65.5971 148.827" stroke="#FF5733" stroke-width="6" stroke-linecap="round"/>
<path d="M77.2526 74.6465C78.2613 76.9717 78.8638 80.0674 80.3409 82.0605C81.818 84.0536 84.1938 85.8433 86.8602 86.9194" stroke="#FF5733" stroke-width="6" stroke-linecap="round"/>
<path d="M99.9256 61.3261C99.8476 64.2727 99.8353 67.4311 101.627 69.7682C103.018 71.5475 104.964 72.3037 106.948 73.4913" stroke="#FF5733" stroke-width="6" stroke-linecap="round"/>
<path d="M99.7959 54.2969C101.728 55.037 104.259 55.4323 106.623 56.4453C109.644 57.7961 112.19 59.7994 114.663 61.7865" stroke="#FF5733" stroke-width="6" stroke-linecap="round"/>
<path d="M98.5228 46.5983C100.14 47.7651 102.259 48.5833 104.212 49.5954C106.843 50.9608 109.592 52.1452 112.349 53.2485C116.089 54.8704 119.778 56.6226 122.831 59.4659C126.434 62.9686 128.718 67.7324 129.888 72.8471C130.962 77.7648 130.677 82.8206 129.731 87.7057C128.455 94.3754 126.127 100.825 123.364 107.065C120.527 113.424 116.167 119.394 111.345 124.598C105.864 130.943 99.9637 135.789 93.1131 140.137C89.1816 142.658 84.8011 144.473 80.3297 145.855C76.1552 147.098 71.6633 147.799 67.1442 147.819C62.5657 147.84 57.9986 146.779 53.6169 144.845C47.9076 142.238 42.7463 138.893 38.1149 134.981C32.4551 130.126 28.6504 123.649 25.6678 117.012C23.1242 111.465 21.0982 105.634 20.2708 99.5119C19.1925 91.4329 18.5373 83.2336 21.0278 75.5549C23.1771 68.9371 27.2953 62.9684 32.1524 57.8414C35.6568 54.1235 40.0413 51.1572 44.8486 49.2697C47.6967 48.2198 51.0888 47.4041 54.5019 46.8793C59.6069 46.0151 64.7498 45.7134 69.8705 45.5167C74.4703 45.3499 79.0745 45.1757 83.6705 45.0066C87.5723 44.8582 91.4741 44.7098 95.3759 44.5614" stroke="#FF5733" stroke-width="6" stroke-linecap="round"/>
<path d="M53.9837 25.2169C57.2683 25.4697 60.4733 26.0946 63.5947 27.0592C66.7279 28.0266 69.7353 29.3311 72.3979 31.0204C77.5621 34.1346 80.9905 39.1083 82.1679 44.4726C83.8971 51.6767 81.4472 59.2009 76.9293 65.4506C74.1405 69.7178 70.3661 73.1332 66.0504 75.4543C63.4364 76.8582 60.6648 77.9291 57.8045 78.6692" stroke="#FF5733" stroke-width="6" stroke-linecap="round"/>
<path d="M63.8492 39.6185C62.8329 41.8322 62.3755 44.3538 62.2222 46.9215C62.0438 50.0769 62.573 53.2896 63.4682 56.3969" stroke="#FF5733" stroke-width="6" stroke-linecap="round"/>
<path d="M69.2742 34.0621C67.1981 35.4311 65.1444 36.8471 63.1708 38.3575C61.2013 39.8695 59.3121 41.4945 57.4168 43.0984" stroke="#FF5733" stroke-width="6" stroke-linecap="round"/>
<path d="M50.2119 19.1904C47.0741 20.2921 43.9253 21.4705 40.7253 22.6774C36.2976 24.3794 31.7685 25.8008 27.2486 26.9568C21.1754 28.6617 14.8836 29.3427 8.61932 28.4969C4.28268 27.9368 -0.0182558 26.4959 1.87556 20.8819C3.45021 16.2627 8.4862 15.0865 11.5915 12.3276C15.1244 9.07613 17.3315 4.26097 21.6545 1.32626C24.2071 -0.464766 27.6573 -1.36189 31.0979 -1.6997C37.2027 -2.2732 43.3506 -0.389944 49.1605 1.42312C55.5645 3.54718 61.4511 7.03307 66.7154 11.6429C69.8118 14.4489 72.7583 17.6498 75.7393 20.826C78.7384 24.0197 82.4386 26.7752 86.5697 28.3878C88.3449 28.9987 90.1864 29.2833 91.9806 29.2833" stroke="#FF5733" stroke-width="6" stroke-linecap="round"/>
<path d="M56.1376 30.631C55.4371 31.7673 54.5262 32.7608 54.1109 33.9892C53.6949 35.2165 53.9294 36.6512 54.3121 37.8433C55.1875 40.6191 56.4233 43.2355 57.8332 45.6257C59.3408 48.1967 61.4129 50.4705 63.5762 52.5533C66.1006 55.0675 68.9895 57.4471 71.5242 60.0024C73.2703 61.6784 75.0866 63.8089 75.3665 66.2058C75.6541 68.6927 74.5047 71.2118 73.2348 73.4364C71.965 75.6609 70.5671 77.9732 68.9714 79.9834C67.3382 81.9849 65.3067 83.4462 63.0165 84.209C60.6637 84.9874 58.1264 85.0115 55.7716 84.2795C53.3993 83.5466 51.3486 81.9502 49.7667 80.0443C48.2063 78.1659 46.9387 75.9476 46.4024 73.5747C45.8832 71.2676 45.7133 68.8864 46.3035 66.6771C46.9182 64.3512 48.4026 62.2889 49.6598 60.326C50.8154 58.5534 52.1879 56.8385 53.9173 55.5881C54.7124 54.9676 56.1066 53.4171 56.6404 54.0392" stroke="#FF5733" stroke-width="6" stroke-linecap="round"/>
<path d="M30.2369 52.8736C28.5949 56.4828 28.0403 60.3827 27.9244 64.3217C27.8606 66.5229 27.8341 68.7264 28.2326 70.8977" stroke="#FF5733" stroke-width="6" stroke-linecap="round"/>
<path d="M40.1028 42.2735C40.2995 43.6819 40.4061 45.1015 40.3033 46.5159C40.2244 47.6255 39.9273 48.7128 39.5671 49.7831" stroke="#FF5733" stroke-width="6" stroke-linecap="round"/>
<path d="M31.7192 58.935C31.9391 57.736 32.2321 56.5561 32.7383 55.4552C33.4453 53.8694 34.2893 52.3752 35.1998 50.9759" stroke="#FF5733" stroke-width="6" stroke-linecap="round"/>
<path d="M17.7831 75.1244C17.8745 77.4233 18.4481 79.7025 18.5461 81.9901" stroke="#FF5733" stroke-width="6" stroke-linecap="round"/>
<path d="M18.7854 67.0563C16.8118 70.5698 14.9449 74.1773 13.1115 77.7925C12.1953 79.6019 11.1347 81.3594 10.0255 83.0524" stroke="#FF5733" stroke-width="6" stroke-linecap="round"/>
<path d="M22.061 87.2389C21.3077 89.1324 20.5702 91.0484 19.9113 92.9867" stroke="#FF5733" stroke-width="6" stroke-linecap="round"/>
<path d="M16.2024 61.964C14.8984 65.1655 13.7275 68.3989 12.7019 71.6542C11.4489 75.7452 11.0068 79.9538 11.2683 84.1869" stroke="#FF5733" stroke-width="6" stroke-linecap="round"/>
<path d="M35.971 49.8289C35.6546 51.3031 35.2552 52.7665 34.7564 54.2086C34.2002 55.8347 33.6181 57.4404 32.9854 59.0146" stroke="#FF5733" stroke-width="6" stroke-linecap="round"/>
<path d="M22.9589 46.9913C23.5795 47.8721 24.2996 48.7693 25.1196 49.6801C26.3829 51.0233 27.6974 52.3284 29.0627 53.5979" stroke="#FF5733" stroke-width="6" stroke-linecap="round"/>
<path d="M12.1487 80.1099C10.5478 83.2494 9.27709 86.5352 8.33317 89.8822C7.36293 93.3249 6.93821 96.8485 7.26926 100.365" stroke="#FF5733" stroke-width="6" stroke-linecap="round"/>
<path d="M11.5063 72.2865C9.35925 75.6292 7.35184 79.0087 5.47953 82.4219C4.42344 84.5726 3.41686 86.7297 2.46453 88.9006" stroke="#FF5733" stroke-width="6" stroke-linecap="round"/>
<path d="M14.7165 89.0245C13.6267 91.3213 12.6671 93.6292 11.8379 95.9477" stroke="#FF5733" stroke-width="6" stroke-linecap="round"/>
<path d="M9.8663 64.6594C7.85209 68.1717 5.9712 71.7402 4.22056 75.3561C2.39219 79.1978 0.694245 83.0863 0.201555 87.0984" stroke="#FF5733" stroke-width="6" stroke-linecap="round"/>
<path d="M28.1465 53.6488C27.0594 55.6529 25.9613 57.6321 24.8767 59.6221C24.0802 61.2917 23.4016 62.9939 22.8407 64.7221" stroke="#FF5733" stroke-width="6" stroke-linecap="round"/>
<path d="M25.2141 44.6795C26.6469 46.1301 28.1679 47.4945 29.7704 48.7661C31.3603 50.0391 33.0249 51.2046 34.7561 52.2439" stroke="#FF5733" stroke-width="6" stroke-linecap="round"/>
<path d="M13.936 76.5101C13.0075 78.8837 12.1961 81.3001 11.5065 83.7471" stroke="#FF5733" stroke-width="6" stroke-linecap="round"/>
<path d="M16.6463 68.7397C14.881 72.0125 13.1764 75.3162 11.5321 78.6446" stroke="#FF5733" stroke-width="6" stroke-linecap="round"/>
<path d="M20.3926 87.5567C19.2327 90.1504 18.1942 92.7728 17.277 95.4152" stroke="#FF5733" stroke-width="6" stroke-linecap="round"/>
<path d="M15.0174 61.6443C13.2179 65.334 11.4879 69.0465 9.85764 72.7824" stroke="#FF5733" stroke-width="6" stroke-linecap="round"/>
</g>
</svg>
